<svg width="93" height="93" viewBox="0 0 93 93" fill="none" xmlns="http://www.w3.org/2000/svg">
<path d="M33.511 57.0051L46.4884 69.75L59.4696 57.0051C60.2695 56.2351 60.9058 55.3115 61.3405 54.2898C61.7751 53.2681 61.9991 52.1692 61.9991 51.0589C61.9991 49.9486 61.7751 48.8497 61.3405 47.828C60.9058 46.8063 60.2695 45.8828 59.4696 45.1127C57.8561 43.5201 55.6802 42.6271 53.413 42.6271C51.1459 42.6271 48.9699 43.5201 47.3564 45.1127L46.4884 45.9613L45.6204 45.1127C44.0075 43.5204 41.8322 42.6275 39.5657 42.6275C37.2992 42.6275 35.1239 43.5204 33.511 45.1127C32.7111 45.8828 32.0748 46.8063 31.6402 47.828C31.2055 48.8497 30.9815 49.9486 30.9815 51.0589C30.9815 52.1692 31.2055 53.2681 31.6402 54.2898C32.0748 55.3115 32.7111 56.2351 33.511 57.0051Z" fill="black"/>
<path d="M73.625 15.5H65.875V7.75H58.125V15.5H34.875V7.75H27.125V15.5H19.375C15.1009 15.5 11.625 18.9759 11.625 23.25V77.5C11.625 81.7741 15.1009 85.25 19.375 85.25H73.625C77.8991 85.25 81.375 81.7741 81.375 77.5V23.25C81.375 18.9759 77.8991 15.5 73.625 15.5ZM73.6328 77.5H19.375V31H73.625L73.6328 77.5Z" fill="black"/>
</svg>
